# xmcd
#
# Track frame offsets: 
#        150
#        24237
#        46030
#        68587
#        88957
#        117412
#        141475
#        160450
#        185377
#        208620
#        232285
#        261782
#
# Disc length: 3678 seconds
#
# Revision: 8
# Processed by: cddbd v1.5.1PL2 Copyright (c) Steve Scherf et al.
# Submitted via: ExactAudioCopy v0.95b3
#
DISCID=ac0e5c0c
DTITLE=Joan Osborne - Relish
DYEAR=1995
DGENRE=Rock
TTITLE0=St. Teresa
TTITLE1=Man in the Long Black Coat
TTITLE2=Right Hand Man
TTITLE3=Pensacola
TTITLE4=Dracula Moon
TTITLE5=One of Us
TTITLE6=Ladder
TTITLE7=Spider Web
TTITLE8=Let's Just Get Naked
TTITLE9=Help Me
TTITLE10=Crazy Baby
TTITLE11=Lumina
EXTD=YEAR: 1995
EXTT0=
EXTT1=
EXTT2=
EXTT3=
EXTT4=
EXTT5=
EXTT6=
EXTT7=
EXTT8=
EXTT9=
EXTT10=
EXTT11=
PLAYORDER=
